Coordinates
version=1
nRows=26
nColumns=24
inDegrees=yes

Units are S.I. units (second, meters, Newtons, ...)
If the header above contains a line with 'inDegrees', this indicates whether rotational values are in degrees (yes) or radians (no).

endheader
time	pelvis_tilt	pelvis_list	pelvis_rotation	pelvis_tx	pelvis_ty	pelvis_tz	hip_flexion_r	hip_adduction_r	hip_rotation_r	knee_angle_r	ankle_angle_r	subtalar_angle_r	mtp_angle_r	hip_flexion_l	hip_adduction_l	hip_rotation_l	knee_angle_l	ankle_angle_l	subtalar_angle_l	mtp_angle_l	lumbar_extension	lumbar_bending	lumbar_rotation
      8.51000000	     -1.63557192	     -0.22088404	    -93.76589159	     -0.01055499	      0.94497411	      0.47392425	     -6.63829355	      4.07032246	     -8.40479169	    -15.64436217	     28.18573119	     15.83505811	      0.00000000	     24.78561744	     -5.87969922	    -17.56246706	     -4.12283126	      7.30701730	     11.19522436	      0.00000000	      0.00000000	      0.00000000	      0.00000000
      8.52000000	     -1.59966636	      0.03143980	    -94.08520440	     -0.00951059	      0.94411472	      0.48015693	     -6.76585152	      3.77819460	     -8.48411746	    -15.66258757	     28.38669575	     16.64439051	      0.00000000	     24.52197188	     -5.75409167	    -17.35600957	     -3.80193494	      7.05914807	     11.39935422	      0.00000000	      0.00000000	      0.00000000	      0.00000000
      8.53000000	     -1.51836680	      0.34085807	    -94.43211693	     -0.00837689	      0.94325052	      0.48644017	     -6.82787515	      3.41425637	     -8.58393267	    -15.68482785	     28.57017537	     17.54644850	      0.00000000	     24.27408498	     -5.57881151	    -17.21109234	     -3.35096865	      6.58392720	     11.34245712	      0.00000000	      0.00000000	      0.00000000	      0.00000000
      8.54000000	     -1.36210264	      0.66770386	    -94.74214999	     -0.00708853	      0.94245614	      0.49286662	     -6.89302855	      2.95336744	     -8.79585456	    -15.66969110	     28.72384782	     18.56707967	      0.00000000	     24.01474872	     -5.30204034	    -17.05783404	     -2.77741365	      5.81837650	     10.89793278	      0.00000000	      0.00000000	      0.00000000	      0.00000000
      8.55000000	     -1.15548102	      1.00994761	    -95.08354773	     -0.00573989	      0.94177675	      0.49927169	     -6.91018818	      2.41883394	     -9.01362338	    -15.69323520	     28.84359533	     19.64579709	      0.00000000	     23.76816996	     -4.99389925	    -16.91469019	     -2.16310142	      4.68456803	     10.01683599	      0.00000000	      0.00000000	      0.00000000	      0.00000000
      8.56000000	     -0.87843824	      1.32924754	    -95.38716231	     -0.00430580	      0.94129207	      0.50577035	     -6.94291244	      1.81170290	     -9.27319263	    -15.71774696	     28.89580690	     20.68651437	      0.00000000	     23.53606331	     -4.62122766	    -16.72622281	     -1.61486438	      3.19168671	      8.74183297	      0.00000000	      0.00000000	      0.00000000	      0.00000000
      8.57000000	     -0.57802856	      1.61087539	    -95.70376750	     -0.00287552	      0.94103204	      0.51228885	     -6.97948654	      1.18410021	     -9.47217176	    -15.78249868	     28.82472439	     21.61135722	      0.00000000	     23.33177464	     -4.26171555	    -16.56708246	     -1.21840677	      1.51716163	      7.24479503	      0.00000000	      0.00000000	      0.00000000	      0.00000000
      8.58000000	     -0.26247809	      1.82354841	    -96.00476245	     -0.00141712	      0.94098820	      0.51886372	     -7.06279597	      0.54382403	     -9.64611278	    -15.87951385	     28.66577067	     22.42373965	      0.00000000	     23.14255162	     -3.90888125	    -16.47191594	     -1.01046121	     -0.09188564	      5.75558481	      0.00000000	      0.00000000	      0.00000000	      0.00000000
      8.59000000	      0.06716665	      1.95585709	    -96.28181728	      0.00013097	      0.94114162	      0.52554055	     -7.22017199	     -0.11642879	     -9.81198765	    -15.98841741	     28.45652867	     23.17901306	      0.00000000	     22.94751004	     -3.54620805	    -16.44287062	     -0.98189398	     -1.41084804	      4.48788852	      0.00000000	      0.00000000	      0.00000000	      0.00000000
      8.60000000	      0.42895830	      1.98833489	    -96.51231210	      0.00183924	      0.94148611	      0.53229221	     -7.47158181	     -0.82495007	    -10.03057525	    -16.11538269	     28.21651091	     23.89313991	      0.00000000	     22.72361587	     -3.13113204	    -16.42552573	     -1.12010666	     -2.35700354	      3.48658516	      0.00000000	      0.00000000	      0.00000000	      0.00000000
      8.61000000	      0.83039089	      1.97079914	    -96.70616123	      0.00370071	      0.94197188	      0.53912565	     -7.78273064	     -1.58291121	    -10.26109192	    -16.21977256	     27.93840998	     24.60250651	      0.00000000	     22.50877499	     -2.65694666	    -16.33871904	     -1.39904783	     -2.98789729	      2.66672226	      0.00000000	      0.00000000	      0.00000000	      0.00000000
      8.62000000	      1.29503191	      1.94996107	    -96.91187033	      0.00568425	      0.94254148	      0.54595153	     -8.06806007	     -2.42115624	    -10.45653055	    -16.34706728	     27.66090723	     25.27615962	      0.00000000	     22.35104249	     -2.11805963	    -16.19245855	     -1.80161458	     -3.43393501	      1.86905645	      0.00000000	      0.00000000	      0.00000000	      0.00000000
      8.63000000	      1.76095188	      1.79709985	    -96.93268625	      0.00794710	      0.94334095	      0.55286847	     -8.55376768	     -3.26364667	    -10.90327192	    -16.40872356	     27.27564470	     26.04233199	      0.00000000	     22.12780458	     -1.49446693	    -15.79535291	     -2.31108152	     -3.84892106	      1.01244627	      0.00000000	      0.00000000	      0.00000000	      0.00000000
      8.64000000	      2.22240727	      1.66388635	    -96.98426144	      0.01026354	      0.94418137	      0.55975373	     -8.98686116	     -4.11142461	    -11.26925701	    -16.50791724	     26.84164491	     26.77489741	      0.00000000	     21.98295409	     -0.89039373	    -15.49450375	     -2.93288622	     -4.19536026	      0.16647424	      0.00000000	      0.00000000	      0.00000000	      0.00000000
      8.65000000	      2.63915713	      1.55530478	    -97.04289015	      0.01256673	      0.94504948	      0.56662142	     -9.38114849	     -4.90839729	    -11.56482671	    -16.62109025	     26.31790448	     27.46981927	      0.00000000	     21.92204085	     -0.34925828	    -15.35982661	     -3.66952539	     -4.49160232	     -0.57480762	      0.00000000	      0.00000000	      0.00000000	      0.00000000
      8.66000000	      2.97141087	      1.37777362	    -96.99238609	      0.01492787	      0.94603457	      0.57355607	     -9.91389436	     -5.59101647	    -11.92993667	    -16.65818931	     25.63819110	     28.12069388	      0.00000000	     21.84079991	      0.13407978	    -15.28250490	     -4.51298169	     -4.70679187	     -1.11569516	      0.00000000	      0.00000000	      0.00000000	      0.00000000
      8.67000000	      3.22889208	      1.18862578	    -96.95538298	      0.01728089	      0.94702721	      0.58045533	    -10.45857594	     -6.18823038	    -12.22649374	    -16.69544461	     24.86250934	     28.66567442	      0.00000000	     21.78006772	      0.52330835	    -15.34790012	     -5.43805388	     -4.83262508	     -1.47351904	      0.00000000	      0.00000000	      0.00000000	      0.00000000
      8.68000000	      3.43677790	      0.99040845	    -96.89843909	      0.01965414	      0.94797418	      0.58746094	    -11.06308284	     -6.71450215	    -12.49763910	    -16.65818412	     24.04632109	     29.15162199	      0.00000000	     21.72685131	      0.86141898	    -15.48714687	     -6.41817623	     -4.89050344	     -1.73552505	      0.00000000	      0.00000000	      0.00000000	      0.00000000
      8.69000000	      3.57519969	      0.80453517	    -96.85366625	      0.02200469	      0.94886117	      0.59446703	    -11.65954795	     -7.15950706	    -12.72477145	    -16.61285320	     23.17585064	     29.56495235	      0.00000000	     21.70094645	      1.11567681	    -15.66088156	     -7.43777093	     -4.91231820	     -1.96223830	      0.00000000	      0.00000000	      0.00000000	      0.00000000
      8.70000000	      3.62864208	      0.64371134	    -96.80969829	      0.02434062	      0.94969975	      0.60149514	    -12.23142005	     -7.50291571	    -12.89837252	    -16.56402001	     22.21254797	     29.91781000	      0.00000000	     21.70436636	      1.28054762	    -15.77187914	     -8.47485837	     -4.87405025	     -2.24501634	      0.00000000	      0.00000000	      0.00000000	      0.00000000
      8.71000000	      3.61383938	      0.52006669	    -96.78168461	      0.02663623	      0.95048455	      0.60861096	    -12.77457858	     -7.76244847	    -12.99695866	    -16.48670268	     21.14161390	     30.22967543	      0.00000000	     21.72941970	      1.37315198	    -15.82457967	     -9.49831906	     -4.74244836	     -2.62201961	      0.00000000	      0.00000000	      0.00000000	      0.00000000
      8.72000000	      3.55170121	      0.42060600	    -96.76457675	      0.02893374	      0.95117456	      0.61573937	    -13.28813429	     -7.97527692	    -13.09304508	    -16.41133155	     20.03612623	     30.57457854	      0.00000000	     21.77027439	      1.41881693	    -15.81626822	    -10.52307819	     -4.45301941	     -3.06646700	      0.00000000	      0.00000000	      0.00000000	      0.00000000
      8.73000000	      3.53741185	      0.31071887	    -96.76396274	      0.03122087	      0.95178616	      0.62302142	    -13.83377383	     -8.24850669	    -13.21472091	    -16.29463042	     18.96765703	     31.02464480	      0.00000000	     21.76126757	      1.52296800	    -15.79911156	    -11.50070799	     -4.03319896	     -3.55513201	      0.00000000	      0.00000000	      0.00000000	      0.00000000
      8.74000000	      3.48719382	      0.32929984	    -96.82239110	      0.03343523	      0.95220601	      0.63018091	    -14.17219125	     -8.47532502	    -13.18518048	    -16.25685467	     17.91675774	     31.36630349	      0.00000000	     21.87628076	      1.55135214	    -15.82275711	    -12.48820172	     -3.47521551	     -3.95335085	      0.00000000	      0.00000000	      0.00000000	      0.00000000
      8.75000000	      3.52207367	      0.29328079	    -96.76327474	      0.03578974	      0.95261550	      0.63747310	    -14.59368246	     -8.77882350	    -13.36189291	    -16.22853930	     16.87820249	     31.78087799	      0.00000000	     21.88669289	      1.73971103	    -15.67526081	    -13.38700882	     -2.89278333	     -4.41285323	      0.00000000	      0.00000000	      0.00000000	      0.00000000
      8.76000000	      3.58637614	      0.29538336	    -96.79893122	      0.03801147	      0.95301862	      0.64468173	    -14.89991348	     -9.12686333	    -13.38087213	    -16.27065299	     15.82322287	     32.09497290	      0.00000000	     21.86866476	      1.93180855	    -15.63827145	    -14.16839313	     -2.32561657	     -4.84862428	      0.00000000	      0.00000000	      0.00000000	      0.00000000
